<svg width="1280" height="720" xmlns="http://www.w3.org/2000/svg" xmlns:xlink="http://www.w3.org/1999/xlink" overflow="hidden"><defs><clipPath id="clip0"><rect x="0" y="0" width="1280" height="720"/></clipPath><clipPath id="clip1"><rect x="-224" y="137" width="1661" height="142"/></clipPath><clipPath id="clip2"><rect x="-224" y="137" width="1661" height="142"/></clipPath><clipPath id="clip3"><rect x="-224" y="137" width="1661" height="142"/></clipPath></defs><g clip-path="url(#clip0)"><rect x="0" y="0" width="1280" height="720" fill="#FFFFFF" fill-opacity="0.14902"/><g clip-path="url(#clip1)"><g clip-path="url(#clip2)"><g clip-path="url(#clip3)"><path d="M0 28.4 35.5 40.2481C71 51.9188 142 75.8812 213 78.1 284 80.3187 355 61.6812 426 56.8 497 51.9188 568 61.6812 603.5 66.2519L639 71 639 142 603.5 142C568 142 497 142 426 142 355 142 284 142 213 142 142 142 71 142 35.5 142L0 142Z" fill="#FFFFFF" transform="matrix(2.59937 0 0 1 -224 137)"/></g></g></g></g></svg>